<svg id="SvgjsSvg1186" width="1089" height="484" xmlns="http://www.w3.org/2000/svg" version="1.1" xmlns:xlink="http://www.w3.org/1999/xlink" xmlns:svgjs="http://svgjs.com/svgjs"><defs id="SvgjsDefs1187"><marker id="SvgjsMarker1240" markerWidth="16" markerHeight="12" refX="16" refY="6" viewBox="0 0 16 12" orient="auto" markerUnits="userSpaceOnUse" stroke-dasharray="0,0"><path id="SvgjsPath1241" d="M0,2 L14,6 L0,11 L0,2" fill="#323232" stroke="#323232" stroke-width="2"></path></marker></defs><g id="SvgjsG1188" transform="translate(470,83)"><path id="SvgjsPath1189" d="M 0 0L 364 0L 364 329L 0 329Z" stroke="rgba(50,50,50,1)" stroke-width="2" fill-opacity="1" fill="#ffffff"></path><g id="SvgjsG1190"><text id="SvgjsText1191" font-family="微软雅黑" text-anchor="middle" font-size="21px" width="344px" fill="#323232" font-weight="400" align="middle" lineHeight="125%" anchor="middle" family="微软雅黑" size="21px" weight="400" font-style="" opacity="1" y="146.875" transform="rotate(0)"></text></g></g><g id="SvgjsG1192" transform="translate(592,419)"><path id="SvgjsPath1193" d="M 0 0L 120 0L 120 40L 0 40Z" stroke="none" fill="none"></path><g id="SvgjsG1194"><text id="SvgjsText1195" font-family="微软雅黑" text-anchor="middle" font-size="21px" width="120px" fill="#323232" font-weight="400" align="middle" lineHeight="125%" anchor="middle" family="微软雅黑" size="21px" weight="400" font-style="" opacity="1" y="2.375" transform="rotate(0)"><tspan id="SvgjsTspan1196" dy="26" x="60"><tspan id="SvgjsTspan1197" style="text-decoration:;">JVM Stack</tspan></tspan></text></g></g><g id="SvgjsG1198" transform="translate(25,222.5)"><path id="SvgjsPath1199" d="M 16.666666666666668 0L 83.33333333333333 0C 105.55555555555556 0 105.55555555555556 50 83.33333333333333 50L 16.666666666666668 50C -5.555555555555556 50 -5.555555555555556 0 16.666666666666668 0Z" stroke="rgba(76,175,80,1)" stroke-width="2" fill-opacity="1" fill="#ffffff"></path><g id="SvgjsG1200"><text id="SvgjsText1201" font-family="微软雅黑" text-anchor="middle" font-size="13px" width="80px" fill="#4caf50" font-weight="400" align="middle" lineHeight="125%" anchor="middle" family="微软雅黑" size="13px" weight="400" font-style="" opacity="1" y="15.375" transform="rotate(0)"><tspan id="SvgjsTspan1202" dy="16" x="50"><tspan id="SvgjsTspan1203" style="text-decoration:;">Method Exec</tspan></tspan></text></g></g><g id="SvgjsG1204" transform="translate(143,217.5)"><path id="SvgjsPath1205" d="M 0 19.8L 60 19.8L 60 0L 90 30L 60 60L 60 40.2L 0 40.2L 0 19.8Z" stroke="rgba(76,175,80,1)" stroke-width="2" fill-opacity="1" fill="#ffffff"></path><g id="SvgjsG1206"><text id="SvgjsText1207" font-family="微软雅黑" text-anchor="middle" font-size="13px" width="90px" fill="#4caf50" font-weight="400" align="middle" lineHeight="125%" anchor="middle" family="微软雅黑" size="13px" weight="400" font-style="" opacity="1" y="20.375" transform="rotate(0)"><tspan id="SvgjsTspan1208" dy="16" x="45"><tspan id="SvgjsTspan1209" style="text-decoration:;">Create</tspan></tspan></text></g></g><g id="SvgjsG1210" transform="translate(592,272.5)"><path id="SvgjsPath1211" d="M 0 0L 120 0L 120 76L 0 76Z" stroke="none" fill="none"></path><g id="SvgjsG1212"><text id="SvgjsText1213" font-family="微软雅黑" text-anchor="middle" font-size="13px" width="120px" fill="#323232" font-weight="700" align="middle" lineHeight="125%" anchor="middle" family="微软雅黑" size="13px" weight="700" font-style="" opacity="1" y="12.375" transform="rotate(0)"><tspan id="SvgjsTspan1214" dy="16" x="60"><tspan id="SvgjsTspan1215" style="text-decoration:;">.</tspan></tspan><tspan id="SvgjsTspan1216" dy="16" x="60"><tspan id="SvgjsTspan1217" style="text-decoration:;">.</tspan></tspan><tspan id="SvgjsTspan1218" dy="16" x="60"><tspan id="SvgjsTspan1219" style="text-decoration:;">.</tspan></tspan></text></g></g><g id="SvgjsG1220" transform="translate(240,225.5)"><path id="SvgjsPath1221" d="M 0 0L 215 0L 215 44L 0 44Z" stroke="rgba(50,50,50,1)" stroke-width="2" fill-opacity="1" fill="#ffffff"></path><g id="SvgjsG1222"><text id="SvgjsText1223" font-family="微软雅黑" text-anchor="middle" font-size="13px" width="195px" fill="#212121" font-weight="400" align="middle" lineHeight="125%" anchor="middle" family="微软雅黑" size="13px" weight="400" font-style="" opacity="1" y="12.375" transform="rotate(0)"><tspan id="SvgjsTspan1224" dy="16" x="107.5"><tspan id="SvgjsTspan1225" style="text-decoration:;">Stack Frame</tspan></tspan></text></g></g><g id="SvgjsG1226" transform="translate(482,233.5)"><path id="SvgjsPath1227" d="M 0 0L 340 0L 340 41.5L 0 41.5Z" stroke="rgba(50,50,50,1)" stroke-width="2" fill-opacity="1" fill="#ffffff"></path><g id="SvgjsG1228"><text id="SvgjsText1229" font-family="微软雅黑" text-anchor="middle" font-size="13px" width="320px" fill="#323232" font-weight="400" align="middle" lineHeight="125%" anchor="middle" family="微软雅黑" size="13px" weight="400" font-style="" opacity="1" y="11.125" transform="rotate(0)"><tspan id="SvgjsTspan1230" dy="16" x="170"><tspan id="SvgjsTspan1231" style="text-decoration:;">Stack Frame</tspan></tspan></text></g></g><g id="SvgjsG1232" transform="translate(25,362)"><path id="SvgjsPath1233" d="M 16.666666666666668 0L 83.33333333333333 0C 105.55555555555556 0 105.55555555555556 50 83.33333333333333 50L 16.666666666666668 50C -5.555555555555556 50 -5.555555555555556 0 16.666666666666668 0Z" stroke="rgba(211,47,47,1)" stroke-width="2" fill-opacity="1" fill="#ffffff"></path><g id="SvgjsG1234"><text id="SvgjsText1235" font-family="微软雅黑" text-anchor="middle" font-size="13px" width="80px" fill="#d32f2f" font-weight="400" align="middle" lineHeight="125%" anchor="middle" family="微软雅黑" size="13px" weight="400" font-style="" opacity="1" y="15.375" transform="rotate(0)"><tspan id="SvgjsTspan1236" dy="16" x="50"><tspan id="SvgjsTspan1237" style="text-decoration:;">Method Finish</tspan></tspan></text></g></g><g id="SvgjsG1238"><path id="SvgjsPath1239" d="M75 272.5C 75 308.3 75 326.2 75 362" stroke="#323232" stroke-width="2" fill="none" marker-end="url(#SvgjsMarker1240)"></path></g><g id="SvgjsG1242" transform="translate(788.9343065693431,29)"><path id="SvgjsPath1243" d="M 0 52.42627737226278Q 0 0 52.42627737226278 0L 62.91153284671534 0Q 115.33781021897812 0 115.33781021897812 52.42627737226278L 115.33781021897812 154.8L 131.06569343065695 154.8L 98.95459854014601 193.5L 66.84350364963505 154.8L 82.57138686131388 154.8L 82.57138686131388 52.42627737226278Q 82.57138686131388 32.76642335766424 62.911532846715346 32.76642335766424L 52.426277372262774 32.76642335766424Q 32.76642335766424 32.76642335766424 32.76642335766424 52.42627737226278L 32.76642335766424 193.5L 0 193.5L 0 52.42627737226278Z" stroke="rgba(211,47,47,1)" stroke-width="2" fill-opacity="1" fill="#ffffff"></path><path id="SvgjsPath1244" d="M 0 0L 131.06569343065695 0L 131.06569343065695 193.5L 0 193.5Z" stroke="none" fill="none"></path><g id="SvgjsG1245"><text id="SvgjsText1246" font-family="微软雅黑" text-anchor="middle" font-size="13px" width="122px" fill="#d32f2f" font-weight="400" align="middle" lineHeight="125%" anchor="middle" family="微软雅黑" size="13px" weight="400" font-style="" opacity="1" y="87.125" transform="rotate(0)"></text></g></g><g id="SvgjsG1247" transform="translate(786,29)"><path id="SvgjsPath1248" d="M 0 0L 117.37226277372264 0L 117.37226277372264 43.36134453781513L 0 43.36134453781513Z" stroke="none" fill="none"></path><g id="SvgjsG1249"><text id="SvgjsText1250" font-family="微软雅黑" text-anchor="middle" font-size="13px" width="118px" fill="#d32f2f" font-weight="400" align="middle" lineHeight="125%" anchor="middle" family="微软雅黑" size="13px" weight="400" font-style="" opacity="1" y="12.055672268907564" transform="rotate(0)"><tspan id="SvgjsTspan1251" dy="16" x="59"><tspan id="SvgjsTspan1252" style="text-decoration:;">POP OUT</tspan></tspan></text></g></g><g id="SvgjsG1253" transform="translate(414,25)"><path id="SvgjsPath1254" d="M 0 53.2Q 0 0 53.2 0L 63.84 0Q 117.04 0 117.04 53.2L 117.04 152.39999999999998L 133 152.39999999999998L 100.415 190.5L 67.83 152.39999999999998L 83.79 152.39999999999998L 83.79 53.2Q 83.79 33.25 63.84 33.25L 53.2 33.25Q 33.25 33.25 33.25 53.2L 33.25 190.5L 0 190.5L 0 53.2Z" stroke="rgba(76,175,80,1)" stroke-width="2" fill-opacity="1" fill="#ffffff"></path><path id="SvgjsPath1255" d="M 0 0L 133 0L 133 190.5L 0 190.5Z" stroke="none" fill="none"></path><g id="SvgjsG1256"><text id="SvgjsText1257" font-family="微软雅黑" text-anchor="middle" font-size="13px" width="123px" fill="#4caf50" font-weight="400" align="middle" lineHeight="125%" anchor="middle" family="微软雅黑" size="13px" weight="400" font-style="" opacity="1" y="85.625" transform="rotate(0)"></text></g></g><g id="SvgjsG1258" transform="translate(421.8235294117647,25)"><path id="SvgjsPath1259" d="M 0 0L 117.35294117647058 0L 117.35294117647058 40.64L 0 40.64Z" stroke="none" fill="none"></path><g id="SvgjsG1260"><text id="SvgjsText1261" font-family="微软雅黑" text-anchor="middle" font-size="13px" width="118px" fill="#4caf50" font-weight="400" align="middle" lineHeight="125%" anchor="middle" family="微软雅黑" size="13px" weight="400" font-style="" opacity="1" y="10.695" transform="rotate(0)"><tspan id="SvgjsTspan1262" dy="16" x="59"><tspan id="SvgjsTspan1263" style="text-decoration:;">PUSH IN</tspan></tspan></text></g></g><g id="SvgjsG1264" transform="translate(139,357)"><path id="SvgjsPath1265" d="M 0 19.8L 301 19.8L 301 0L 331 30L 301 60L 301 40.2L 0 40.2L 0 19.8Z" stroke="rgba(211,47,47,1)" stroke-width="2" fill-opacity="1" fill="#ffffff"></path><g id="SvgjsG1266"><text id="SvgjsText1267" font-family="微软雅黑" text-anchor="middle" font-size="13px" width="331px" fill="#d32f2f" font-weight="400" align="middle" lineHeight="125%" anchor="middle" family="微软雅黑" size="13px" weight="400" font-style="" opacity="1" y="20.375" transform="rotate(0)"><tspan id="SvgjsTspan1268" dy="16" x="165.5"><tspan id="SvgjsTspan1269" style="text-decoration:;">POP OUT</tspan></tspan></text></g></g><g id="SvgjsG1270" transform="translate(849,232.25)"><path id="SvgjsPath1271" d="M 0 0L 215 0L 215 44L 0 44Z" stroke="rgba(50,50,50,1)" stroke-width="2" fill-opacity="1" fill="#ffffff"></path><g id="SvgjsG1272"><text id="SvgjsText1273" font-family="微软雅黑" text-anchor="middle" font-size="13px" width="195px" fill="#323232" font-weight="400" align="middle" lineHeight="125%" anchor="middle" family="微软雅黑" size="13px" weight="400" font-style="" opacity="1" y="12.375" transform="rotate(0)"><tspan id="SvgjsTspan1274" dy="16" x="107.5"><tspan id="SvgjsTspan1275" style="text-decoration:;">Stack Frame</tspan></tspan></text></g></g></svg>